HIERARCHY
ROOT mixamorig:Hips
{
	OFFSET -0.000008 104.274872 1.554316
	CHANNELS 6 Xposition Yposition Zposition Xrotation Yrotation Zrotation
	JOINT mixamorig:Spine
	{
		OFFSET -0.000005 10.181595 0.131519
		CHANNELS 6 Xposition Yposition Zposition Xrotation Yrotation Zrotation
		JOINT mixamorig:Spine1
		{
			OFFSET -0.000000 9.893959 -1.470707
			CHANNELS 6 Xposition Yposition Zposition Xrotation Yrotation Zrotation
			JOINT mixamorig:Spine2
			{
				OFFSET -0.000000 9.220757 -1.370641
				CHANNELS 6 Xposition Yposition Zposition Xrotation Yrotation Zrotation
				JOINT mixamorig:Neck
				{
					OFFSET 0.000001 16.740417 -2.049036
					CHANNELS 6 Xposition Yposition Zposition Xrotation Yrotation Zrotation
					JOINT mixamorig:Head
					{
						OFFSET 0.000000 9.617874 1.685006
						CHANNELS 6 Xposition Yposition Zposition Xrotation Yrotation Zrotation
						JOINT mixamorig:HeadTop_End
						{
							OFFSET 0.000002 22.037354 7.501101
							CHANNELS 6 Xposition Yposition Zposition Xrotation Yrotation Zrotation
							End Site
							{
								OFFSET 0.000168 2310.654297 -282.823242
							}
						}
					}
				}
				JOINT mixamorig:RightShoulder
				{
					OFFSET -4.569970 11.014908 -2.160885
					CHANNELS 6 Xposition Yposition Zposition Xrotation Yrotation Zrotation
					JOINT mixamorig:RightArm
					{
						OFFSET -10.592851 -0.524811 -2.232101
						CHANNELS 6 Xposition Yposition Zposition Xrotation Yrotation Zrotation
						JOINT mixamorig:RightForeArm
						{
							OFFSET -27.841511 0.000031 -0.000004
							CHANNELS 6 Xposition Yposition Zposition Xrotation Yrotation Zrotation
							JOINT mixamorig:RightHand
							{
								OFFSET -28.328831 -0.000015 0.000015
								CHANNELS 6 Xposition Yposition Zposition Xrotation Yrotation Zrotation
								JOINT mixamorig:RightHandThumb1
								{
									OFFSET -2.464806 -1.573990 2.681852
									CHANNELS 6 Xposition Yposition Zposition Xrotation Yrotation Zrotation
									JOINT mixamorig:RightHandThumb2
									{
										OFFSET -3.215179 -1.872803 1.924282
										CHANNELS 6 Xposition Yposition Zposition Xrotation Yrotation Zrotation
										JOINT mixamorig:RightHandThumb3
										{
											OFFSET -2.654831 -1.527969 1.512609
											CHANNELS 6 Xposition Yposition Zposition Xrotation Yrotation Zrotation
											JOINT mixamorig:RightHandThumb4
											{
												OFFSET -2.018814 -1.152008 1.108052
												CHANNELS 6 Xposition Yposition Zposition Xrotation Yrotation Zrotation
												End Site
												{
													OFFSET -188.809540 -114.533607 132.431396
												}
											}
										}
									}
								}
								JOINT mixamorig:RightHandIndex1
								{
									OFFSET -9.108284 -0.517868 2.259835
									CHANNELS 6 Xposition Yposition Zposition Xrotation Yrotation Zrotation
									JOINT mixamorig:RightHandIndex2
									{
										OFFSET -3.699989 0.000000 0.001215
										CHANNELS 6 Xposition Yposition Zposition Xrotation Yrotation Zrotation
										JOINT mixamorig:RightHandIndex3
										{
											OFFSET -2.850006 0.000031 -0.000522
											CHANNELS 6 Xposition Yposition Zposition Xrotation Yrotation Zrotation
											JOINT mixamorig:RightHandIndex4
											{
												OFFSET -2.772186 -0.000015 -0.000020
												CHANNELS 6 Xposition Yposition Zposition Xrotation Yrotation Zrotation
												End Site
												{
													OFFSET -277.218445 0.000000 -0.050231
												}
											}
										}
									}
								}
								JOINT mixamorig:RightHandMiddle1
								{
									OFFSET -9.532516 -0.000031 -0.000023
									CHANNELS 6 Xposition Yposition Zposition Xrotation Yrotation Zrotation
									JOINT mixamorig:RightHandMiddle2
									{
										OFFSET -3.700005 -0.000015 0.003713
										CHANNELS 6 Xposition Yposition Zposition Xrotation Yrotation Zrotation
										JOINT mixamorig:RightHandMiddle3
										{
											OFFSET -2.949974 0.000015 -0.002054
											CHANNELS 6 Xposition Yposition Zposition Xrotation Yrotation Zrotation
											JOINT mixamorig:RightHandMiddle4
											{
												OFFSET -2.946640 0.000000 -0.000156
												CHANNELS 6 Xposition Yposition Zposition Xrotation Yrotation Zrotation
												End Site
												{
													OFFSET -294.664337 0.000000 -0.113670
												}
											}
										}
									}
								}
								JOINT mixamorig:RightHandRing1
								{
									OFFSET -9.103600 -0.043076 -1.865134
									CHANNELS 6 Xposition Yposition Zposition Xrotation Yrotation Zrotation
									JOINT mixamorig:RightHandRing2
									{
										OFFSET -3.379288 0.000000 -0.001055
										CHANNELS 6 Xposition Yposition Zposition Xrotation Yrotation Zrotation
										JOINT mixamorig:RightHandRing3
										{
											OFFSET -2.889687 -0.000015 0.000379
											CHANNELS 6 Xposition Yposition Zposition Xrotation Yrotation Zrotation
											JOINT mixamorig:RightHandRing4
											{
												OFFSET -2.638809 -0.000015 0.000941
												CHANNELS 6 Xposition Yposition Zposition Xrotation Yrotation Zrotation
												End Site
												{
													OFFSET -263.880371 0.000000 0.516020
												}
											}
										}
									}
								}
								JOINT mixamorig:RightHandPinky1
								{
									OFFSET -8.076683 -0.486710 -3.806280
									CHANNELS 6 Xposition Yposition Zposition Xrotation Yrotation Zrotation
									JOINT mixamorig:RightHandPinky2
									{
										OFFSET -3.600014 -0.000015 -0.003747
										CHANNELS 6 Xposition Yposition Zposition Xrotation Yrotation Zrotation
										JOINT mixamorig:RightHandPinky3
										{
											OFFSET -2.099983 0.000000 -0.005739
											CHANNELS 6 Xposition Yposition Zposition Xrotation Yrotation Zrotation
											JOINT mixamorig:RightHandPinky4
											{
												OFFSET -2.115768 -0.000031 -0.003680
												CHANNELS 6 Xposition Yposition Zposition Xrotation Yrotation Zrotation
												End Site
												{
													OFFSET -211.577087 0.000000 -0.350686
												}
											}
										}
									}
								}
							}
						}
					}
				}
				JOINT mixamorig:LeftShoulder
				{
					OFFSET 4.570447 11.014725 -2.160855
					CHANNELS 6 Xposition Yposition Zposition Xrotation Yrotation Zrotation
					JOINT mixamorig:LeftArm
					{
						OFFSET 10.592371 -0.524597 -2.232119
						CHANNELS 6 Xposition Yposition Zposition Xrotation Yrotation Zrotation
						JOINT mixamorig:LeftForeArm
						{
							OFFSET 27.841532 -0.000031 0.000026
							CHANNELS 6 Xposition Yposition Zposition Xrotation Yrotation Zrotation
							JOINT mixamorig:LeftHand
							{
								OFFSET 28.328846 -0.000061 0.000022
								CHANNELS 6 Xposition Yposition Zposition Xrotation Yrotation Zrotation
								JOINT mixamorig:LeftHandThumb1
								{
									OFFSET 2.466141 -1.576172 2.681732
									CHANNELS 6 Xposition Yposition Zposition Xrotation Yrotation Zrotation
									JOINT mixamorig:LeftHandThumb2
									{
										OFFSET 3.217812 -1.872070 1.916482
										CHANNELS 6 Xposition Yposition Zposition Xrotation Yrotation Zrotation
										JOINT mixamorig:LeftHandThumb3
										{
											OFFSET 2.656029 -1.528778 1.514513
											CHANNELS 6 Xposition Yposition Zposition Xrotation Yrotation Zrotation
											JOINT mixamorig:LeftHandThumb4
											{
												OFFSET 2.020889 -1.154053 1.115139
												CHANNELS 6 Xposition Yposition Zposition Xrotation Yrotation Zrotation
												End Site
												{
													OFFSET 190.885437 -115.081749 130.048782
												}
											}
										}
									}
								}
								JOINT mixamorig:LeftHandIndex1
								{
									OFFSET 9.109314 -0.518021 2.259871
									CHANNELS 6 Xposition Yposition Zposition Xrotation Yrotation Zrotation
									JOINT mixamorig:LeftHandIndex2
									{
										OFFSET 3.699989 0.000000 -0.000322
										CHANNELS 6 Xposition Yposition Zposition Xrotation Yrotation Zrotation
										JOINT mixamorig:LeftHandIndex3
										{
											OFFSET 2.850006 0.000000 0.000352
											CHANNELS 6 Xposition Yposition Zposition Xrotation Yrotation Zrotation
											JOINT mixamorig:LeftHandIndex4
											{
												OFFSET 2.774864 -0.000031 -0.000027
												CHANNELS 6 Xposition Yposition Zposition Xrotation Yrotation Zrotation
												End Site
												{
													OFFSET 277.486267 0.000000 -0.009857
												}
											}
										}
									}
								}
								JOINT mixamorig:LeftHandMiddle1
								{
									OFFSET 9.533394 0.000061 0.000044
									CHANNELS 6 Xposition Yposition Zposition Xrotation Yrotation Zrotation
									JOINT mixamorig:LeftHandMiddle2
									{
										OFFSET 3.699989 -0.000015 -0.000231
										CHANNELS 6 Xposition Yposition Zposition Xrotation Yrotation Zrotation
										JOINT mixamorig:LeftHandMiddle3
										{
											OFFSET 2.949997 -0.000015 -0.000059
											CHANNELS 6 Xposition Yposition Zposition Xrotation Yrotation Zrotation
											JOINT mixamorig:LeftHandMiddle4
											{
												OFFSET 2.952896 0.000031 0.000063
												CHANNELS 6 Xposition Yposition Zposition Xrotation Yrotation Zrotation
												End Site
												{
													OFFSET 295.289337 0.000000 0.022810
												}
											}
										}
									}
								}
								JOINT mixamorig:LeftHandRing1
								{
									OFFSET 9.104523 -0.042999 -1.865074
									CHANNELS 6 Xposition Yposition Zposition Xrotation Yrotation Zrotation
									JOINT mixamorig:LeftHandRing2
									{
										OFFSET 3.150009 -0.000031 0.000043
										CHANNELS 6 Xposition Yposition Zposition Xrotation Yrotation Zrotation
										JOINT mixamorig:LeftHandRing3
										{
											OFFSET 2.949982 -0.000015 0.000040
											CHANNELS 6 Xposition Yposition Zposition Xrotation Yrotation Zrotation
											JOINT mixamorig:LeftHandRing4
											{
												OFFSET 2.644348 0.000000 0.000057
												CHANNELS 6 Xposition Yposition Zposition Xrotation Yrotation Zrotation
												End Site
												{
													OFFSET 264.434631 0.000000 0.012105
												}
											}
										}
									}
								}
								JOINT mixamorig:LeftHandPinky1
								{
									OFFSET 8.077789 -0.486847 -3.806259
									CHANNELS 6 Xposition Yposition Zposition Xrotation Yrotation Zrotation
									JOINT mixamorig:LeftHandPinky2
									{
										OFFSET 3.599953 0.000031 0.014727
										CHANNELS 6 Xposition Yposition Zposition Xrotation Yrotation Zrotation
										JOINT mixamorig:LeftHandPinky3
										{
											OFFSET 2.100021 0.000015 0.007705
											CHANNELS 6 Xposition Yposition Zposition Xrotation Yrotation Zrotation
											JOINT mixamorig:LeftHandPinky4
											{
												OFFSET 2.125504 0.000031 0.007517
												CHANNELS 6 Xposition Yposition Zposition Xrotation Yrotation Zrotation
												End Site
												{
													OFFSET 212.550781 0.000000 0.625752
												}
											}
										}
									}
								}
							}
						}
					}
				}
			}
		}
	}
	JOINT mixamorig:RightUpLeg
	{
		OFFSET -8.207787 -6.751648 -1.599560
		CHANNELS 6 Xposition Yposition Zposition Xrotation Yrotation Zrotation
		JOINT mixamorig:RightLeg
		{
			OFFSET -0.000002 -44.370117 0.345942
			CHANNELS 6 Xposition Yposition Zposition Xrotation Yrotation Zrotation
			JOINT mixamorig:RightFoot
			{
				OFFSET 0.000003 -44.423679 -3.043532
				CHANNELS 6 Xposition Yposition Zposition Xrotation Yrotation Zrotation
				JOINT mixamorig:RightToeBase
				{
					OFFSET -0.000002 -8.728671 10.710558
					CHANNELS 6 Xposition Yposition Zposition Xrotation Yrotation Zrotation
					JOINT mixamorig:RightToe_End
					{
						OFFSET -0.000001 -0.000679 9.278119
						CHANNELS 6 Xposition Yposition Zposition Xrotation Yrotation Zrotation
						End Site
						{
							OFFSET 0.000000 -0.067690 927.812134
						}
					}
				}
			}
		}
	}
	JOINT mixamorig:LeftUpLeg
	{
		OFFSET 8.207793 -6.751686 -1.599556
		CHANNELS 6 Xposition Yposition Zposition Xrotation Yrotation Zrotation
		JOINT mixamorig:LeftLeg
		{
			OFFSET -0.000004 -44.370014 0.346954
			CHANNELS 6 Xposition Yposition Zposition Xrotation Yrotation Zrotation
			JOINT mixamorig:LeftFoot
			{
				OFFSET -0.000001 -44.423672 -3.044401
				CHANNELS 6 Xposition Yposition Zposition Xrotation Yrotation Zrotation
				JOINT mixamorig:LeftToeBase
				{
					OFFSET -0.000002 -8.728669 10.710558
					CHANNELS 6 Xposition Yposition Zposition Xrotation Yrotation Zrotation
					JOINT mixamorig:LeftToe_End
					{
						OFFSET -0.000003 -0.000679 9.278133
						CHANNELS 6 Xposition Yposition Zposition Xrotation Yrotation Zrotation
						End Site
						{
							OFFSET 0.000000 -0.068021 927.813477
						}
					}
				}
			}
		}
	}
}
MOTION
Frames: 3
Frame Time: 0.033333
0.000006 104.270477 1.554256 0.000010 0.000003 -0.000113 -0.000005 10.181587 0.131522 0.000001 -0.000003 0.000084 -0.000000 9.893967 -1.470711 0.000001 0.000000 -0.000000 -0.000000 9.220802 -1.370642 0.000000 -0.000000 -0.000000 0.000001 16.740433 -2.049030 0.000000 -0.000000 -0.000000 0.000000 9.617859 1.685014 0.000000 0.000000 0.000000 0.000002 22.037384 7.501101 0.000000 -0.000000 0.000000 -4.569968 11.014880 -2.160881 0.000008 0.000001 -0.000038 -10.592868 -0.524778 -2.231886 76.330636 32.209188 -25.570017 -27.841507 0.000016 0.000557 -47.524142 106.143995 60.721577 -28.328817 0.000023 0.000033 -0.000321 -0.000043 0.000009 -2.464389 -1.573845 2.682337 -41.945134 -153.919925 2.375375 -3.215173 -1.872449 1.924602 140.454972 32.958480 54.687931 -2.654969 -1.527873 1.513067 152.496035 26.883225 -29.520539 -2.018838 -1.152002 1.108055 -0.000003 0.000000 0.000000 -9.108364 -0.517560 2.260145 105.582423 15.062130 -19.814778 -3.700052 0.000322 0.001544 102.649595 13.313781 -16.562072 -2.850096 0.000359 -0.000214 102.296925 11.140454 -13.805818 -2.772171 -0.000000 -0.000022 0.000000 -0.000000 -0.000000 -9.532583 0.000273 0.000281 104.467402 13.685043 -17.787558 -3.700062 0.000321 0.004018 104.223134 11.661171 -14.831305 -2.950051 0.000344 -0.001764 106.722341 10.622696 -14.240929 -2.946631 -0.000015 -0.000156 0.000001 -0.000001 -0.000000 -9.103684 -0.042755 -1.864823 104.740083 14.257633 -18.373274 -3.379328 0.000326 -0.000763 105.568845 8.171807 -10.768988 -2.889740 0.000355 0.000704 110.324938 6.542996 -9.455439 -2.638812 -0.000014 0.000940 -0.000000 0.000001 0.000001 -8.076753 -0.486398 -3.805973 95.722745 17.427267 -19.062119 -3.600024 0.000297 -0.003454 101.982313 6.331363 -7.386031 -2.100011 0.000331 -0.005417 105.965918 2.832486 -3.476740 -2.115776 -0.000041 -0.003681 0.000001 -0.000000 -0.000003 4.570446 11.014691 -2.160851 -0.000018 0.000010 -0.000021 10.592403 -0.524475 -2.232353 72.696756 -13.731067 10.126639 27.841814 0.000048 -0.000211 96.200810 -75.126043 81.203962 28.328823 -0.000028 0.000019 0.000021 -0.000088 0.000000 2.466211 -1.576092 2.681853 0.142733 160.712480 -83.265368 3.217816 -1.871748 1.916378 163.567458 -29.608430 9.718774 2.656112 -1.528645 1.514473 144.169966 -26.521394 48.121159 2.020894 -1.154054 1.115146 0.000000 0.000000 0.000008 9.109384 -0.517884 2.259731 78.097769 -19.019468 15.466533 3.700057 0.000113 -0.000471 75.736751 -18.285576 14.280589 2.850047 0.000162 0.000198 72.983187 -14.848597 11.010882 2.774871 -0.000031 -0.000032 -0.000000 -0.000002 -0.000003 9.533484 0.000180 -0.000079 77.551730 -18.082600 14.561663 3.700041 0.000144 -0.000368 80.657438 -16.944330 14.411306 2.950068 0.000139 -0.000204 80.221234 -18.619941 15.728061 2.952860 -0.000016 0.000062 -0.000000 -0.000000 -0.000001 9.104585 -0.042883 -1.865242 74.466288 -16.335717 12.451461 3.150055 0.000167 -0.000095 80.540846 -14.812259 12.569888 2.950034 0.000135 -0.000075 81.655758 -15.102279 13.069490 2.644339 0.000030 0.000055 0.000000 0.000001 0.000001 8.077850 -0.486753 -3.806399 67.284446 -17.268117 11.944999 3.600000 0.000132 0.014565 67.940083 -14.495410 10.150342 2.100017 0.000160 0.007547 72.855388 -13.144703 10.085474 2.125498 -0.000014 0.007520 0.000001 0.000000 0.000002 -8.207786 -6.751667 -1.599560 -0.077001 -0.000003 0.000080 -0.000002 -44.370110 0.345938 0.153719 -0.000000 -0.000000 0.000000 -44.423679 -3.043532 -0.076700 0.000000 -0.000002 -0.000006 -8.728667 10.710559 -0.000009 -0.000000 -0.000000 -0.000001 -0.000679 9.278123 0.000000 -0.000000 -0.000000 8.207792 -6.751710 -1.599556 -0.074518 -0.000003 0.000081 -0.000002 -44.370014 0.346960 0.148822 0.000002 0.000000 -0.000001 -44.423664 -3.044403 -0.074314 0.000000 -0.000002 -0.000004 -8.728671 10.710558 0.000007 -0.000000 -0.000000 0.000000 -0.000680 9.278137 -0.000000 0.000000 -0.000001 
0.000006 104.270477 1.554256 0.000010 0.000003 -0.000113 -0.000005 10.181587 0.131522 0.000001 -0.000003 0.000084 -0.000000 9.893967 -1.470711 0.000001 0.000000 -0.000000 -0.000000 9.220802 -1.370642 0.000000 -0.000000 -0.000000 0.000001 16.740433 -2.049030 0.000000 -0.000000 -0.000000 0.000000 9.617859 1.685014 0.000000 0.000000 0.000000 0.000002 22.037384 7.501101 0.000000 -0.000000 0.000000 -4.569968 11.014880 -2.160881 0.000008 0.000001 -0.000038 -10.592865 -0.524788 -2.231873 75.794520 36.999760 -29.196521 -27.841518 0.000015 0.000544 -46.245350 105.049115 58.233503 -28.328815 0.000020 0.000021 -0.000318 -0.000045 0.000008 -2.464381 -1.573801 2.682323 -46.252293 -155.764322 -6.728356 -3.215167 -1.872431 1.924594 138.293709 31.917320 58.059982 -2.654982 -1.527858 1.513074 151.087719 27.806834 -23.682346 -2.018826 -1.152003 1.108065 -0.000000 -0.000001 0.000002 -9.108357 -0.517531 2.260174 105.622018 14.053781 -18.514718 -3.700065 0.000325 0.001530 102.541384 12.790943 -15.883376 -2.850087 0.000368 -0.000212 101.756568 11.303698 -13.874332 -2.772171 -0.000015 -0.000025 -0.000000 0.000000 -0.000000 -9.532584 0.000272 0.000280 103.680298 14.164279 -18.146380 -3.700066 0.000324 0.004025 104.808761 12.400465 -15.938897 -2.950055 0.000340 -0.001731 107.827725 11.599790 -15.858012 -2.946617 0.000000 -0.000148 0.000000 0.000002 0.000000 -9.103695 -0.042761 -1.864799 105.134336 16.543143 -21.449480 -3.379336 0.000308 -0.000746 107.093862 9.283408 -12.567942 -2.889758 0.000338 0.000696 111.894331 7.224981 -10.741334 -2.638798 0.000015 0.000937 0.000000 0.000003 0.000001 -8.076765 -0.486401 -3.805963 97.731189 19.940997 -22.584866 -3.600032 0.000287 -0.003469 100.066486 7.334151 -8.328559 -2.100005 0.000339 -0.005450 102.107927 3.267922 -3.780628 -2.115772 -0.000041 -0.003684 0.000001 0.000004 -0.000005 4.570446 11.014691 -2.160851 -0.000018 0.000010 -0.000021 10.592417 -0.524472 -2.232360 72.506440 -18.158323 13.367526 27.841803 0.000044 -0.000198 97.426276 -76.687984 84.024721 28.328840 -0.000029 0.000015 0.000021 -0.000089 -0.000000 2.466230 -1.576031 2.681815 8.463256 171.925219 -106.151672 3.217849 -1.871830 1.916411 169.859442 -22.775653 33.123672 2.656104 -1.528669 1.514509 145.802327 -24.511066 63.589546 2.020895 -1.154037 1.115155 -0.000002 0.000003 0.000001 9.109366 -0.517892 2.259733 76.935046 -21.456430 17.110370 3.700042 0.000137 -0.000454 76.178773 -14.540978 11.434473 2.850035 0.000160 0.000204 76.038310 -10.908283 8.537373 2.774880 -0.000030 -0.000033 -0.000000 -0.000005 -0.000000 9.533459 0.000171 -0.000092 77.442925 -19.889328 15.996334 3.700031 0.000151 -0.000362 81.091803 -12.445739 10.655838 2.950048 0.000160 -0.000209 81.293492 -11.771964 10.118327 2.952865 -0.000015 0.000064 0.000001 0.000002 -0.000000 9.104580 -0.042897 -1.865203 78.435434 -19.517482 15.981225 3.150049 0.000175 -0.000098 81.581371 -13.299271 11.490599 2.950016 0.000168 -0.000094 81.796761 -10.543226 9.140240 2.644318 0.000030 0.000053 0.000000 -0.000001 0.000000 8.077831 -0.486754 -3.806403 71.519143 -20.526170 15.307965 3.599999 0.000159 0.014572 71.326935 -16.592864 12.333425 2.100024 0.000159 0.007549 73.725069 -12.261676 9.575733 2.125498 -0.000018 0.007517 0.000000 0.000001 -0.000001 -8.207786 -6.751667 -1.599560 -0.077001 -0.000003 0.000080 -0.000002 -44.370110 0.345938 0.153719 -0.000000 -0.000000 0.000000 -44.423679 -3.043532 -0.076700 0.000000 -0.000002 -0.000006 -8.728667 10.710559 -0.000009 -0.000000 -0.000000 -0.000001 -0.000679 9.278123 0.000000 -0.000000 -0.000000 8.207792 -6.751710 -1.599556 -0.074518 -0.000003 0.000081 -0.000002 -44.370014 0.346960 0.148822 0.000002 0.000000 -0.000001 -44.423664 -3.044403 -0.074314 0.000000 -0.000002 -0.000004 -8.728671 10.710558 0.000007 -0.000000 -0.000000 0.000000 -0.000680 9.278137 -0.000000 0.000000 -0.000001 
0.000006 104.270477 1.554256 0.000010 0.000003 -0.000113 -0.000005 10.181587 0.131522 0.000001 -0.000003 0.000084 -0.000000 9.893967 -1.470711 0.000001 0.000000 -0.000000 -0.000000 9.220802 -1.370642 0.000000 -0.000000 -0.000000 0.000001 16.740433 -2.049030 0.000000 -0.000000 -0.000000 0.000000 9.617859 1.685014 0.000000 0.000000 0.000000 0.000002 22.037384 7.501101 0.000000 -0.000000 0.000000 -4.569968 11.014880 -2.160881 0.000008 0.000001 -0.000038 -10.592857 -0.524796 -2.231836 75.727127 41.386845 -32.732398 -27.841522 0.000004 0.000561 -46.138778 103.836893 57.051354 -28.328814 0.000023 0.000031 -0.000319 -0.000046 0.000007 -2.464378 -1.573820 2.682316 -44.178661 -154.322291 -2.362922 -3.215163 -1.872447 1.924592 138.769445 32.229839 58.485756 -2.654955 -1.527870 1.513065 151.467409 27.426590 -26.401092 -2.018823 -1.152019 1.108072 -0.000002 -0.000005 0.000000 -9.108382 -0.517557 2.260140 105.197208 14.170800 -18.526772 -3.700053 0.000322 0.001528 102.246593 12.966825 -16.017620 -2.850094 0.000362 -0.000217 101.868884 11.319343 -13.921055 -2.772163 0.000000 -0.000023 -0.000000 0.000002 -0.000000 -9.532574 0.000272 0.000274 103.413811 13.861576 -17.680694 -3.700084 0.000326 0.004032 105.422413 11.953330 -15.532456 -2.950060 0.000329 -0.001733 108.373970 11.321792 -15.634061 -2.946650 0.000013 -0.000161 -0.000000 -0.000003 0.000001 -9.103683 -0.042761 -1.864816 104.667677 16.044596 -20.636687 -3.379323 0.000319 -0.000749 108.046250 8.691721 -11.976405 -2.889744 0.000343 0.000724 112.449373 6.931856 -10.417145 -2.638808 0.000000 0.000943 0.000000 0.000003 -0.000001 -8.076746 -0.486399 -3.805983 96.998098 19.146415 -21.412812 -3.600030 0.000274 -0.003469 100.803750 6.692393 -7.666910 -2.100014 0.000331 -0.005440 102.506366 2.883591 -3.330449 -2.115782 -0.000040 -0.003682 0.000000 -0.000001 -0.000004 4.570446 11.014691 -2.160851 -0.000018 0.000010 -0.000021 10.592425 -0.524471 -2.232363 72.140513 -21.726497 15.915352 27.841824 0.000025 -0.000199 97.232360 -76.647809 83.789284 28.328831 -0.000027 0.000024 0.000022 -0.000088 0.000000 2.466266 -1.576005 2.681816 15.206127 174.471349 -115.632097 3.217882 -1.871848 1.916426 167.716156 -19.604378 44.795229 2.656112 -1.528687 1.514504 142.569544 -26.152784 60.448021 2.020887 -1.154072 1.115135 0.000002 0.000005 0.000001 9.109385 -0.517881 2.259746 79.935159 -20.545790 17.264095 3.700050 0.000131 -0.000469 77.456825 -14.683930 11.812959 2.850037 0.000182 0.000200 77.034207 -11.668982 9.298350 2.774871 -0.000015 -0.000029 0.000000 -0.000002 0.000000 9.533458 0.000181 -0.000082 79.586908 -19.042118 15.898611 3.700043 0.000158 -0.000380 82.447623 -12.691785 11.128330 2.950051 0.000153 -0.000209 82.909385 -11.682321 10.329620 2.952866 -0.000015 0.000061 -0.000001 -0.000000 -0.000000 9.104583 -0.042872 -1.865220 79.739959 -19.286702 16.156698 3.150052 0.000170 -0.000094 83.075543 -14.706270 13.045339 2.950015 0.000161 -0.000087 83.428445 -11.323006 10.101786 2.644325 0.000030 0.000055 -0.000001 -0.000001 0.000000 8.077827 -0.486753 -3.806402 71.681415 -20.527963 15.354385 3.600009 0.000132 0.014587 70.228920 -17.697896 12.878632 2.100036 0.000154 0.007549 72.825929 -12.999136 9.971425 2.125486 0.000000 0.007510 -0.000002 0.000003 0.000001 -8.207786 -6.751667 -1.599560 -0.077001 -0.000003 0.000080 -0.000002 -44.370110 0.345938 0.153719 -0.000000 -0.000000 0.000000 -44.423679 -3.043532 -0.076700 0.000000 -0.000002 -0.000006 -8.728667 10.710559 -0.000009 -0.000000 -0.000000 -0.000001 -0.000679 9.278123 0.000000 -0.000000 -0.000000 8.207792 -6.751710 -1.599556 -0.074518 -0.000003 0.000081 -0.000002 -44.370014 0.346960 0.148822 0.000002 0.000000 -0.000001 -44.423664 -3.044403 -0.074314 0.000000 -0.000002 -0.000004 -8.728671 10.710558 0.000007 -0.000000 -0.000000 0.000000 -0.000680 9.278137 -0.000000 0.000000 -0.000001 
